<?xml version="1.0" encoding="UTF-8"?>
<svg version="1.1" xmlns="http://www.w3.org/2000/svg" width="256" height="256">
<path d="M0 0 C17.32046157 15.28921885 30.32968984 35.29262476 32.37109375 58.921875 C32.4175 60.03755859 32.4175 60.03755859 32.46484375 61.17578125 C32.51640625 62.32175781 32.56796875 63.46773438 32.62109375 64.6484375 C33.32659887 88.24333887 25.68896181 109.11640233 10.46484375 127.17578125 C9.82675781 128.00722656 9.18867188 128.83867187 8.53125 129.6953125 C-3.93050204 144.65412638 -24.37363113 154.52067559 -43.53515625 157.17578125 C-57.88606587 158.23357628 -71.88378446 157.94667589 -85.53515625 153.17578125 C-87.07236328 152.66724609 -87.07236328 152.66724609 -88.640625 152.1484375 C-102.53150368 146.99211397 -114.15656518 137.52366643 -124.53515625 127.17578125 C-125.62570313 126.12003906 -125.62570313 126.12003906 -126.73828125 125.04296875 C-136.12238214 115.32636035 -144.32602849 100.69766235 -146.03515625 87.23828125 C-145.53515625 84.17578125 -145.53515625 84.17578125 -143.91015625 81.67578125 C-141.53515625 80.17578125 -141.53515625 80.17578125 -138.66015625 80.11328125 C-134.88472019 81.39692951 -132.19937581 83.25365931 -129.53515625 86.17578125 C-128.36145152 88.73865341 -127.47492184 91.01363786 -126.66015625 93.67578125 C-120.32701158 112.16847889 -108.8369085 125.69285195 -91.34765625 134.36328125 C-73.50781762 142.20293352 -51.86890651 143.13930132 -33.53515625 136.17578125 C-24.40023754 132.41045395 -15.89309338 127.83789737 -8.53515625 121.17578125 C-7.52775391 120.30566406 -7.52775391 120.30566406 -6.5 119.41796875 C6.98861365 106.99492959 13.8422024 88.65011838 14.71875 70.609375 C15.40757784 49.14333533 9.52756336 31.12724983 -4.78515625 14.89453125 C-18.67545708 1.16207475 -37.71639631 -5.50513157 -57.03515625 -6.19921875 C-70.55897783 -5.73147755 -82.53690204 -1.90744577 -94.53515625 4.17578125 C-93.41063898 7.14771975 -92.31221834 9.51018812 -90.53515625 12.17578125 C-90.91015625 14.86328125 -90.91015625 14.86328125 -91.53515625 17.17578125 C-127.41569075 22.16322397 -127.41569075 22.16322397 -132.9140625 18.66015625 C-133.71650391 17.92539063 -133.71650391 17.92539063 -134.53515625 17.17578125 C-134.00370801 12.07136864 -132.83864624 8.07707769 -130.6640625 3.4375 C-130.38167221 2.83065872 -130.09928192 2.22381744 -129.80833435 1.59858704 C-129.21507151 0.32855812 -128.61736045 -0.93940173 -128.01538086 -2.20532227 C-127.0939919 -4.14443056 -126.18759935 -6.09002631 -125.28320312 -8.03710938 C-120.83421615 -17.52515885 -120.83421615 -17.52515885 -118.53515625 -19.82421875 C-114.67492771 -19.55799609 -112.32899808 -17.3315127 -109.53515625 -14.82421875 C-107.72265625 -12.57421875 -107.72265625 -12.57421875 -106.53515625 -10.82421875 C-102.69410063 -11.9661542 -99.1915242 -13.45592459 -95.59765625 -15.19921875 C-63.12654656 -30.19270929 -26.78387072 -22.35606713 0 0 Z " fill="#EAC41A" transform="translate(186.53515625,64.82421875)"/>
<path d="M0 0 C3.9207597 1.96967075 7.4201484 4.47304593 11 7 C12.19520831 7.81976245 13.39189832 8.63736761 14.58984375 9.453125 C17.26860258 11.28057182 19.93964667 13.11857761 22.60546875 14.96484375 C26.50474285 17.66325124 30.42166844 20.33506998 34.34155273 23.00341797 C38.23563853 25.65744463 42.12073366 28.32436535 46 31 C46.60875977 31.41975098 47.21751953 31.83950195 47.84472656 32.27197266 C49.38218543 33.33862424 50.91028527 34.41873197 52.4375 35.5 C53.24058594 36.0671875 54.04367188 36.634375 54.87109375 37.21875 C58.77430549 40.48455652 60.83416779 42.8391745 61.5625 47.9375 C61.68865203 51.55138455 60.08417625 53.70334706 57.73266602 56.36010742 C54.09561893 59.80241336 49.85787985 62.44149043 45.6875 65.1875 C43.69639646 66.52050758 41.70551232 67.85384293 39.71484375 69.1875 C38.25087158 70.16203125 38.25087158 70.16203125 36.75732422 71.15625 C33.70255182 73.19889576 30.67378196 75.27599875 27.65332031 77.36889648 C25.75916024 78.68115387 23.85898106 79.98422062 21.95703125 81.28515625 C19.85971051 82.71982821 17.76838903 84.16175152 15.68505859 85.61669922 C13.27709879 87.29785593 10.85822656 88.96229622 8.4375 90.625 C7.69918945 91.14666748 6.96087891 91.66833496 6.20019531 92.20581055 C1.80256574 95.20022932 -1.53301286 96.79179779 -7 97 C-12.3451751 95.89062404 -12.3451751 95.89062404 -14.15080261 93.43479919 C-15.38430612 89.89812635 -15.28638411 86.431668 -15.2746582 82.73071289 C-15.2823246 81.48367332 -15.2823246 81.48367332 -15.29014587 80.21144104 C-15.30403831 77.46510608 -15.3030854 74.71902216 -15.30078125 71.97265625 C-15.30466832 70.06220913 -15.30900301 68.15176288 -15.31376648 66.24131775 C-15.3212279 62.23742877 -15.32093793 58.23362798 -15.31567383 54.22973633 C-15.30987876 49.10049433 -15.32681149 43.97161337 -15.3500185 38.84243107 C-15.36475475 34.89702751 -15.3656277 30.95171092 -15.36250877 27.00628471 C-15.36302202 25.11526207 -15.36826043 23.22423456 -15.37832069 21.3332386 C-15.39066589 18.68814802 -15.38390509 16.04376108 -15.37231445 13.39868164 C-15.37995819 12.61877869 -15.38760193 11.83887573 -15.39547729 11.03533936 C-15.35193879 6.53699559 -14.88070029 3.5269542 -12 0 C-7.77732008 -1.40755997 -4.23259578 -1.12096144 0 0 Z " fill="#F2CA16" transform="translate(115,80)"/>
<path d="M0 0 C15.80820536 8.62527993 26.989523 27.00333557 32.15234375 43.734375 C33.95110738 50.0484664 35.72614659 56.41610758 36 63 C36.0515625 64.14597656 36.103125 65.29195313 36.15625 66.47265625 C36.86175512 90.06755762 29.22411806 110.94062108 14 129 C13.36191406 129.83144531 12.72382813 130.66289062 12.06640625 131.51953125 C-0.39534579 146.47834513 -20.83847488 156.34489434 -40 159 C-62.80235394 160.6807448 -84.15613626 157.84738472 -103 144 C-101.68 143.67 -100.36 143.34 -99 143 C-98.67 143.99 -98.34 144.98 -98 146 C-95.69496916 146.75876327 -93.353968 147.41031913 -91 148 C-87.55130431 149.22550462 -84.12380338 150.50044703 -80.6953125 151.78125 C-59.59075328 158.74173888 -36.51509795 155.82143496 -16.85302734 145.97802734 C-7.89554749 141.25027184 -0.20160366 135.07592123 7 128 C7.62519531 127.38769531 8.25039062 126.77539062 8.89453125 126.14453125 C14.48694085 120.22389896 18.2235696 113.14739144 22 106 C22.49886719 105.05769531 22.99773437 104.11539063 23.51171875 103.14453125 C32.40649944 85.06114829 33.17530066 60.84176721 27.39453125 41.640625 C23.62797598 31.80748911 19.18200927 22.61669821 12.25 14.6015625 C11 13 11 13 11 11 C10.34 11 9.68 11 9 11 C6.375 8.625 6.375 8.625 4 6 C4 5.34 4 4.68 4 4 C3.34 4 2.68 4 2 4 C2 3.34 2 2.68 2 2 C1.34 2 0.68 2 0 2 C0 1.34 0 0.68 0 0 Z " fill="#E8E6D9" transform="translate(183,63)"/>
<path d="M0 0 C4.66086404 0.51302451 7.58295794 1.68985726 11.44921875 4.31640625 C12.96999023 5.34024414 12.96999023 5.34024414 14.52148438 6.38476562 C15.56626953 7.10341797 16.61105469 7.82207031 17.6875 8.5625 C18.71294922 9.25408203 19.73839844 9.94566406 20.79492188 10.65820312 C26.74050939 14.68828235 32.57068277 18.85469154 38.36352539 23.1003418 C40.89545322 24.92467094 43.45914101 26.68175052 46.0546875 28.4140625 C46.85390625 28.94773437 47.653125 29.48140625 48.4765625 30.03125 C50.09538952 31.10695264 51.71788923 32.17714579 53.34375 33.2421875 C63.83892203 40.28455049 63.83892203 40.28455049 65.6640625 46.125 C65.65117187 46.74375 65.63828125 47.3625 65.625 48 C65.64433594 48.928125 65.64433594 48.928125 65.6640625 49.875 C63.35836889 57.25321954 55.75088353 61.19503173 49.6875 65.1875 C47.69639646 66.52050758 45.70551232 67.85384293 43.71484375 69.1875 C42.25087158 70.16203125 42.25087158 70.16203125 40.75732422 71.15625 C37.06097878 73.62789873 33.4047616 76.15500768 29.75 78.6875 C27.85163269 79.99159794 25.95148715 81.29306328 24.05078125 82.59375 C22.57751579 83.60398917 21.10641414 84.6173866 19.63671875 85.6328125 C17.18065123 87.32691891 14.71624003 89.00824717 12.25 90.6875 C11.48655273 91.21754639 10.72310547 91.74759277 9.93652344 92.29370117 C9.22012695 92.77814697 8.50373047 93.26259277 7.765625 93.76171875 C6.81864746 94.410802 6.81864746 94.410802 5.85253906 95.07299805 C4 96 4 96 0 96 C0 95.34 0 94.68 0 94 C2.40902547 92.37383224 4.81708081 90.85827536 7.3125 89.375 C13.13570927 85.89561848 18.62598705 82.12832183 24.08862305 78.10546875 C29.04132602 74.52374041 34.14888583 71.17781837 39.25 67.8125 C52.1003988 60.79676279 52.1003988 60.79676279 60.51171875 49.984375 C60.7127652 47.42885127 60.61206776 45.49840373 60 43 C58.3303547 41.15473752 58.3303547 41.15473752 56.08984375 39.63671875 C55.27008057 39.03746582 54.45031738 38.43821289 53.60571289 37.82080078 C52.74582764 37.21993652 51.88594238 36.61907227 51 36 C50.19747803 35.43651855 49.39495605 34.87303711 48.56811523 34.29248047 C46.01719386 32.52851033 43.44890113 30.79274918 40.875 29.0625 C31.72893068 22.87318831 22.64304653 16.60315161 13.58935547 10.27954102 C12.68330566 9.64717529 11.77725586 9.01480957 10.84375 8.36328125 C10.00328125 7.77627441 9.1628125 7.18926758 8.296875 6.58447266 C6.3301574 5.22775526 4.34645619 3.90804664 2.34375 2.60546875 C1.5703125 2.07566406 0.796875 1.54585938 0 1 C0 0.67 0 0.34 0 0 Z " fill="#C7C5AF" transform="translate(111,80)"/>
<path d="M0 0 C1.14210938 -0.01224609 2.28421875 -0.02449219 3.4609375 -0.03710938 C18.11639294 -0.0623774 29.37286879 4.50235103 42.25 11.1875 C42.25 11.8475 42.25 12.5075 42.25 13.1875 C40.5175 12.5996875 40.5175 12.5996875 38.75 12 C36.91758105 11.39306567 35.0840735 10.78941601 33.25 10.1875 C32.32550049 9.88223389 32.32550049 9.88223389 31.38232422 9.57080078 C29.3199038 8.89334149 27.25410491 8.22707511 25.1875 7.5625 C24.5275 7.34440674 23.8675 7.12631348 23.1875 6.90161133 C3.66793298 0.68578881 -15.97374078 5.17477044 -33.75 14.1875 C-32.62548273 17.1594385 -31.52706209 19.52190687 -29.75 22.1875 C-30.125 24.375 -30.125 24.375 -30.75 26.1875 C-39.89980982 27.63697482 -48.85992516 28.39922445 -58.125 28.4375 C-59.50691528 28.45103516 -59.50691528 28.45103516 -60.91674805 28.46484375 C-61.77695557 28.46097656 -62.63716309 28.45710938 -63.5234375 28.453125 C-64.67465088 28.44974121 -64.67465088 28.44974121 -65.84912109 28.44628906 C-67.75 28.1875 -67.75 28.1875 -69.75 26.1875 C-52.92 24.7025 -52.92 24.7025 -35.75 23.1875 C-36.40359524 18.40553318 -36.40359524 18.40553318 -38.375 15.5625 C-39.055625 14.386875 -39.055625 14.386875 -39.75 13.1875 C-38.75 10.1875 -38.75 10.1875 -36.4375 8.5 C-33.75 7.1875 -33.75 7.1875 -29.75 7.1875 C-29.75 6.5275 -29.75 5.8675 -29.75 5.1875 C-27.85546779 4.53785977 -25.95931351 3.89294885 -24.0625 3.25 C-22.47888672 2.71052734 -22.47888672 2.71052734 -20.86328125 2.16015625 C-13.87106621 -0.02436263 -7.27705234 0.00405181 0 0 Z " fill="#F5EFD1" transform="translate(125.75,54.8125)"/>
<path d="M0 0 C15.80820536 8.62527993 26.989523 27.00333557 32.15234375 43.734375 C36.63712176 59.4770206 37.40962258 74.926065 34 91 C33.67 91 33.34 91 33 91 C33 80.11 33 69.22 33 58 C32.34 58.66 31.68 59.32 31 60 C30.76925781 58.76765625 30.53851563 57.5353125 30.30078125 56.265625 C27.50009493 41.82051857 23.20768839 30.25330492 14.98828125 18.03125 C13.46865277 15.71448831 12.15052399 13.51023415 11 11 C10.34 11 9.68 11 9 11 C6.375 8.625 6.375 8.625 4 6 C4 5.34 4 4.68 4 4 C3.34 4 2.68 4 2 4 C2 3.34 2 2.68 2 2 C1.34 2 0.68 2 0 2 C0 1.34 0 0.68 0 0 Z " fill="#C7C8BD" transform="translate(183,63)"/>
<path d="M0 0 C2.475 0.495 2.475 0.495 5 1 C5 1.66 5 2.32 5 3 C6.01320313 3.2784375 7.02640625 3.556875 8.0703125 3.84375 C12.91158333 5.2262748 17.59038973 7.02010004 22.3046875 8.78125 C31.63465204 11.85836304 39.98144586 12.22463133 49.8125 12.0625 C52.40228806 12.0280715 54.99213767 11.99792999 57.58203125 11.97265625 C58.71874268 11.95468994 59.8554541 11.93672363 61.02661133 11.91821289 C63.5843145 11.988566 65.5638894 12.30910251 68 13 C69.66623639 13.03786901 71.33397597 13.04627845 73 13 C61.58805932 19.58381193 40.46206222 17.54116508 28.125 14.3125 C18.03585756 11.28893996 8.31159396 7.63248407 0 1 C0 0.67 0 0.34 0 0 Z " fill="#D1D0C8" transform="translate(80,206)"/>
<path d="M0 0 C-1.35976075 4.07928226 -4.08943239 5.29676325 -7.5625 7.5 C-8.94348142 8.39724875 -10.32366461 9.29572703 -11.703125 10.1953125 C-12.41662109 10.6584082 -13.13011719 11.12150391 -13.86523438 11.59863281 C-17.22019433 13.80099674 -20.51451548 16.08860126 -23.8125 18.375 C-25.81943967 19.75590807 -27.82779803 21.13473232 -29.83642578 22.51318359 C-31.35712513 23.55821395 -32.87618721 24.60562889 -34.39404297 25.65478516 C-36.83978272 27.34168509 -39.2939267 29.01569189 -41.75 30.6875 C-42.5128833 31.21714355 -43.2757666 31.74678711 -44.06176758 32.29248047 C-44.77872803 32.7773291 -45.49568848 33.26217773 -46.234375 33.76171875 C-47.18135254 34.410802 -47.18135254 34.410802 -48.14746094 35.07299805 C-50 36 -50 36 -54 36 C-54 35.34 -54 34.68 -54 34 C-51.59097453 32.37383224 -49.18291919 30.85827536 -46.6875 29.375 C-40.87289917 25.90076204 -35.38450469 22.14312796 -29.92895508 18.12744141 C-24.87349196 14.4554146 -19.69038494 10.97742912 -14.5 7.5 C-13.43007812 6.77296875 -12.36015625 6.0459375 -11.2578125 5.296875 C-9.72253906 4.26820313 -9.72253906 4.26820313 -8.15625 3.21875 C-7.23650391 2.59935547 -6.31675781 1.97996094 -5.36914062 1.34179688 C-3 0 -3 0 0 0 Z " fill="#CCC9AF" transform="translate(165,140)"/>
<path d="M0 0 C2 2 2 2 2.24291992 4.22387695 C2.23675659 5.59225708 2.23675659 5.59225708 2.23046875 6.98828125 C2.22926025 7.99930908 2.22805176 9.01033691 2.22680664 10.05200195 C2.21383545 11.12796631 2.20086426 12.20393066 2.1875 13.3125 C2.18032959 14.39942139 2.17315918 15.48634277 2.16577148 16.60620117 C1.96929695 36.09210916 1.96929695 36.09210916 0 42 C-0.66 42 -1.32 42 -2 42 C-2.495 44.475 -2.495 44.475 -3 47 C-3.99 47 -4.98 47 -6 47 C-6.99 47.495 -6.99 47.495 -8 48 C-7.3503125 46.205625 -7.3503125 46.205625 -6.6875 44.375 C-2.52344367 31.62627778 -1.46166323 19.48041511 -1.15771484 6.15966797 C-1.00015727 4.00215361 -0.58833379 2.07775653 0 0 Z " fill="#FBF8E1" transform="translate(215,119)"/>
<path d="M0 0 C-1 2 -1 2 -3.875 3.0625 C-4.90625 3.371875 -5.9375 3.68125 -7 4 C-7.99 4.33 -8.98 4.66 -10 5 C-10.02345415 13.37302647 -10.04107988 21.74603859 -10.05181217 30.11909008 C-10.05697021 34.00949982 -10.06393431 37.89988665 -10.07543945 41.7902832 C-10.1690056 63.14505194 -10.1690056 63.14505194 -9.55859375 84.48828125 C-9.51960464 85.33102097 -9.48061554 86.17376068 -9.44044495 87.04203796 C-9.26494951 90.23275411 -9.01551213 92.95346362 -8 96 C-5.69 96.33 -3.38 96.66 -1 97 C-4.82788944 98.27596315 -6.36656983 97.62344752 -10 96 C-12.72075232 92.34908872 -12.28844853 88.08324407 -12.2746582 83.73071289 C-12.2823246 82.48367332 -12.2823246 82.48367332 -12.29014587 81.21144104 C-12.30403831 78.46510608 -12.3030854 75.71902216 -12.30078125 72.97265625 C-12.30466832 71.06220913 -12.30900301 69.15176288 -12.31376648 67.24131775 C-12.3212279 63.23742877 -12.32093793 59.23362798 -12.31567383 55.22973633 C-12.30987876 50.10049433 -12.32681149 44.97161337 -12.3500185 39.84243107 C-12.36475475 35.89702751 -12.3656277 31.95171092 -12.36250877 28.00628471 C-12.36302202 26.11526207 -12.36826043 24.22423456 -12.37832069 22.3332386 C-12.39066589 19.68814802 -12.38390509 17.04376108 -12.37231445 14.39868164 C-12.37995819 13.61877869 -12.38760193 12.83887573 -12.39547729 12.03533936 C-12.35193879 7.53699559 -11.88070029 4.5269542 -9 1 C-5.8035914 -0.06546953 -3.34252724 -0.07427838 0 0 Z " fill="#AA9334" transform="translate(112,79)"/>
<path d="M0 0 C9.82609433 0.85444299 18.3604673 5.51479579 27 10 C27 10.66 27 11.32 27 12 C25.2675 11.4121875 25.2675 11.4121875 23.5 10.8125 C21.66758105 10.20556567 19.8340735 9.60191601 18 9 C17.07550049 8.69473389 17.07550049 8.69473389 16.13232422 8.38330078 C14.0699038 7.70584149 12.00410491 7.03957511 9.9375 6.375 C9.2775 6.15690674 8.6175 5.93881348 7.9375 5.71411133 C-4.58300717 1.72707359 -16.6389783 2.6518759 -29.30078125 5.24609375 C-32.52655663 5.90351154 -35.74957767 6.48094031 -39 7 C-38.67 6.34 -38.34 5.68 -38 5 C-37.34 5 -36.68 5 -36 5 C-36 4.01 -36 3.02 -36 2 C-33.16796875 2.04882812 -33.16796875 2.04882812 -30.3359375 2.09765625 C-27.94769284 2.05644901 -27.94769284 2.05644901 -25.4375 1.5 C-20.49649966 0.78130904 -15.61017365 0.89568887 -10.625 0.9375 C-9.09166016 0.94426758 -9.09166016 0.94426758 -7.52734375 0.95117188 C-5.01816806 0.962897 -2.5091151 0.97930824 0 1 C0 0.67 0 0.34 0 0 Z " fill="#B6AF8A" transform="translate(141,56)"/>
<path d="M0 0 C1.85546875 0.17578125 1.85546875 0.17578125 4 1 C5.23828125 3.23046875 5.23828125 3.23046875 6.3125 6.1875 C10.54526793 17.06066532 15.29574881 27.14830714 23 36 C20 36 20 36 17.75 34.1875 C8.97827531 24.83451645 3.21149071 12.27154986 0 0 Z " fill="#DBD8BF" transform="translate(52,149)"/>
<path d="M0 0 C1.7634375 -0.01836914 1.7634375 -0.01836914 3.5625 -0.03710938 C5.2640625 -0.04000977 5.2640625 -0.04000977 7 -0.04296875 C8.03125 -0.04707764 9.0625 -0.05118652 10.125 -0.05541992 C13.11176357 0.19694334 15.29399763 0.93242974 18 2.1875 C18 2.5175 18 2.8475 18 3.1875 C17.30028076 3.18226318 16.60056152 3.17702637 15.87963867 3.17163086 C12.64893525 3.15059174 9.41824634 3.13775534 6.1875 3.125 C5.08728516 3.11662109 3.98707031 3.10824219 2.85351562 3.09960938 C-3.41841641 3.0811081 -9.53442591 3.32248792 -15.7644043 4.06860352 C-18 4.1875 -18 4.1875 -21 3.1875 C-21 4.1775 -21 5.1675 -21 6.1875 C-24.22791555 8.3394437 -25.28400809 8.38836443 -29 8.1875 C-29.33 7.1975 -29.66 6.2075 -30 5.1875 C-28.10546779 4.53785977 -26.20931351 3.89294885 -24.3125 3.25 C-23.25675781 2.89035156 -22.20101562 2.53070313 -21.11328125 2.16015625 C-14.04485363 -0.04817308 -7.35643487 0.00403313 0 0 Z " fill="#FAF5D7" transform="translate(126,54.8125)"/>
<path d="M0 0 C3.07948132 0.82119502 5.44583525 1.51972388 7.875 3.625 C9.5233637 7.10487893 9.76006337 10.27855765 9 14 C6.03495636 18.6219798 3.03592088 20.8919401 -2 23 C-2.66 22.34 -3.32 21.68 -4 21 C-2.576875 20.1028125 -2.576875 20.1028125 -1.125 19.1875 C2.13964197 17.18437474 2.13964197 17.18437474 4 14 C4.75447546 9.31523374 4.61752228 5.94558099 2 1.9375 C1.34 1.298125 0.68 0.65875 0 0 Z " fill="#D8D5C6" transform="translate(167,118)"/>
<path d="M0 0 C1.18771723 3.42943519 0.80226223 5.37784675 -0.4375 8.75 C-0.86869141 9.94882813 -0.86869141 9.94882813 -1.30859375 11.171875 C-1.53675781 11.77515625 -1.76492187 12.3784375 -2 13 C0.87631556 13.82052401 3.43434189 14.12836109 6.421875 14.1328125 C7.27563721 14.13474609 8.12939941 14.13667969 9.0090332 14.13867188 C9.91355225 14.13416016 10.81807129 14.12964844 11.75 14.125 C13.14061646 14.12209961 13.14061646 14.12209961 14.55932617 14.11914062 C22.73481755 14.06859229 30.85070502 13.64548871 39 13 C36.03243516 14.67326932 33.63822 15.32948092 30.25390625 15.6328125 C29.3397998 15.71700439 28.42569336 15.80119629 27.48388672 15.88793945 C26.03780029 16.00528442 26.03780029 16.00528442 24.5625 16.125 C23.57781738 16.2077417 22.59313477 16.2904834 21.57861328 16.37573242 C1.50578383 17.9795149 1.50578383 17.9795149 -2.3359375 15.48046875 C-2.88507812 14.99191406 -3.43421875 14.50335938 -4 14 C-3.46148032 8.72250715 -2.22656164 4.74354436 0 0 Z " fill="#979696" transform="translate(56,68)"/>
<path d="M0 0 C-0.33 0.99 -0.66 1.98 -1 3 C-8.33913761 3.96250985 -15.67102812 4.13729899 -23.0625 4.1875 C-24.47341919 4.20683594 -24.47341919 4.20683594 -25.9128418 4.2265625 C-27.24182495 4.22849609 -27.24182495 4.22849609 -28.59765625 4.23046875 C-29.39695557 4.23457764 -30.19625488 4.23868652 -31.01977539 4.24291992 C-33 4 -33 4 -35 2 C-30.85462295 1.66082869 -26.70863782 1.32973047 -22.5625 1 C-21.39783203 0.90460938 -20.23316406 0.80921875 -19.03320312 0.7109375 C-12.66448898 0.20861638 -6.38824697 -0.1093176 0 0 Z " fill="#F7F4DD" transform="translate(91,79)"/>
<path d="M0 0 C-0.33 1.32 -0.66 2.64 -1 4 C-2.32 4 -3.64 4 -5 4 C-5.99 5.485 -5.99 5.485 -7 7 C-9.625 7.6875 -9.625 7.6875 -12 8 C-12 8.66 -12 9.32 -12 10 C-18.435 10.495 -18.435 10.495 -25 11 C-25.33 10.01 -25.66 9.02 -26 8 C-24.90945312 7.76216797 -24.90945312 7.76216797 -23.796875 7.51953125 C-16.99626931 5.94144198 -10.77715803 3.82605849 -4.3984375 0.98828125 C-2 0 -2 0 0 0 Z " fill="#FAF6D9" transform="translate(168,209)"/>
<path d="M0 0 C6.55754758 13.11509517 4.95902004 31.05033412 2 45 C1.67 45 1.34 45 1 45 C1 34.11 1 23.22 1 12 C0.34 12.66 -0.32 13.32 -1 14 C-0.67 9.38 -0.34 4.76 0 0 Z " fill="#A2A2A2" transform="translate(215,109)"/>
<path d="M0 0 C0.33 0.66 0.66 1.32 1 2 C-1.53682516 3.322644 -4.07877651 4.63317361 -6.625 5.9375 C-7.33785156 6.31068359 -8.05070313 6.68386719 -8.78515625 7.06835938 C-12.86918102 9.14783988 -16.3702221 10.53994321 -21 11 C-19 9 -19 9 -16 8 C-15.34 7.01 -14.68 6.02 -14 5 C-12.68 5.33 -11.36 5.66 -10 6 C-9.71125 5.030625 -9.4225 4.06125 -9.125 3.0625 C-7.2363519 -2.07881983 -4.84165443 -1.13315316 0 0 Z " fill="#DDDACC" transform="translate(177,207)"/>
<path d="M0 0 C0.33 0 0.66 0 1 0 C1.33 1.98 1.66 3.96 2 6 C1.01 6.33 0.02 6.66 -1 7 C-1.72640955 9.31543043 -2.38431458 11.65269935 -3 14 C-4.55698645 17.52014329 -5.92500141 20.59347937 -9 23 C-9.66 23 -10.32 23 -11 23 C-11 23.99 -11 24.98 -11 26 C-12.98 26.66 -14.96 27.32 -17 28 C-16.175 27.113125 -15.35 26.22625 -14.5 25.3125 C-8.14986514 17.89143978 -2.92785655 9.33254275 0 0 Z " fill="#BAA021" transform="translate(197,157)"/>
<path d="M0 0 C7.14695431 4.47024329 14.13815707 9.10293639 21 14 C19.33984375 14.69921875 19.33984375 14.69921875 17 15 C14.37890625 13.70703125 14.37890625 13.70703125 11.5625 11.8125 C10.63566406 11.20019531 9.70882812 10.58789062 8.75390625 9.95703125 C1.21704564 4.60104945 1.21704564 4.60104945 0.1875 1.75 C0.125625 1.1725 0.06375 0.595 0 0 Z " fill="#BBBAAE" transform="translate(150,104)"/>
<path d="M0 0 C0.92683594 0.00451172 1.85367188 0.00902344 2.80859375 0.01367188 C5.08079709 0.02538426 7.35286388 0.04178628 9.625 0.0625 C9.625 0.3925 9.625 0.7225 9.625 1.0625 C8.9858667 1.10737549 8.3467334 1.15225098 7.68823242 1.19848633 C4.72872149 1.41275801 1.77073498 1.64380256 -1.1875 1.875 C-2.19232422 1.94525391 -3.19714844 2.01550781 -4.23242188 2.08789062 C-10.47420286 2.58964151 -16.13278729 3.64192515 -22.10424805 5.5456543 C-24.375 6.0625 -24.375 6.0625 -27.375 5.0625 C-26.385 4.7325 -25.395 4.4025 -24.375 4.0625 C-24.375 3.0725 -24.375 2.0825 -24.375 1.0625 C-21.54296875 1.11132812 -21.54296875 1.11132812 -18.7109375 1.16015625 C-16.31280386 1.11680794 -16.31280386 1.11680794 -13.75 0.5625 C-9.15288786 -0.11855365 -4.63946953 -0.04301933 0 0 Z " fill="#AFAFAE" transform="translate(129.375,56.9375)"/>
<path d="M0 0 C1.71712717 2.57569076 3.25403443 5.19061036 4.76757812 7.88818359 C7.91157366 13.49007844 11.0993505 18.88039753 15 24 C10.17763842 22.64050445 7.95557768 19.94831532 5.25 15.9375 C4.85240479 15.35911377 4.45480957 14.78072754 4.04516602 14.18481445 C0.87473461 9.32725341 -0.09709785 5.72877337 0 0 Z " fill="#C2BCA1" transform="translate(60,162)"/>
<path d="M0 0 C2.475 0.495 2.475 0.495 5 1 C5 1.66 5 2.32 5 3 C6.423125 3.37125 6.423125 3.37125 7.875 3.75 C11.09442308 4.68020216 14.23717586 5.76081595 17.375 6.9375 C18.22835937 7.25589844 19.08171875 7.57429687 19.9609375 7.90234375 C22 9 22 9 23 12 C14.87694006 9.58662712 5.52741493 6.78364559 0 0 Z " fill="#C3BB94" transform="translate(80,206)"/>
<path d="M0 0 C4.37796199 2.36296655 7.68242623 5.28391963 11.1875 8.75 C11.98704102 9.50023438 11.98704102 9.50023438 12.80273438 10.265625 C16.53947735 13.95066461 17.94657576 16.85567056 19 22 C16.07130346 19.17589976 13.41572077 16.27847819 11 13 C11 12.34 11 11.68 11 11 C10.34 11 9.68 11 9 11 C6.375 8.625 6.375 8.625 4 6 C4 5.34 4 4.68 4 4 C3.34 4 2.68 4 2 4 C2 3.34 2 2.68 2 2 C1.34 2 0.68 2 0 2 C0 1.34 0 0.68 0 0 Z " fill="#CCBF89" transform="translate(183,63)"/>
<path d="M0 0 C1.32 0 2.64 0 4 0 C5.51953125 1.609375 5.51953125 1.609375 6.8125 3.75 C7.25207031 4.44609375 7.69164063 5.1421875 8.14453125 5.859375 C9.15108861 8.37806648 8.91922387 9.49610186 8 12 C6.35 12 4.7 12 3 12 C3.061875 10.948125 3.12375 9.89625 3.1875 8.8125 C2.9922214 4.84183507 2.29674932 3.15803031 0 0 Z " fill="#CCCAB9" transform="translate(87,69)"/>
<path d="M0 0 C-0.33 0.763125 -0.66 1.52625 -1 2.3125 C-2.17436686 4.99069135 -2.17436686 4.99069135 -2 8 C-3.75 8.6875 -3.75 8.6875 -6 9 C-8.140625 7.51953125 -8.140625 7.51953125 -10 6 C-8.71283353 4.99421411 -7.42011342 3.99553202 -6.125 3 C-5.40570313 2.443125 -4.68640625 1.88625 -3.9453125 1.3125 C-2 0 -2 0 0 0 Z " fill="#EDE9D0" transform="translate(183,199)"/>
<path d="M0 0 C-3.64031758 2.50271834 -6.90438056 3.58471746 -11.14453125 4.5234375 C-13.12832549 4.95645579 -13.12832549 4.95645579 -15.25 6.1875 C-17.53473108 7.248268 -18.64136434 6.6871232 -21 6 C-4.4546332 -1.71332046 -4.4546332 -1.71332046 0 0 Z " fill="#A89221" transform="translate(107,46)"/>
<path d="M0 0 C6.16529701 0.31616908 10.17268433 3.49215061 15 7 C13.359375 7.7109375 13.359375 7.7109375 11 8 C8.203125 6.6015625 8.203125 6.6015625 5.25 4.625 C4.26515625 3.97789063 3.2803125 3.33078125 2.265625 2.6640625 C1.51796875 2.11492187 0.7703125 1.56578125 0 1 C0 0.67 0 0.34 0 0 Z " fill="#C5C1AB" transform="translate(111,80)"/>
<path d="M0 0 C0.66 0.33 1.32 0.66 2 1 C1.67 1.66 1.34 2.32 1 3 C1.66 3.33 2.32 3.66 3 4 C1.06767179 4.86580287 -0.87107194 5.71729941 -2.8125 6.5625 C-3.89144531 7.03816406 -4.97039062 7.51382813 -6.08203125 8.00390625 C-9 9 -9 9 -12 8 C-11.21625 7.731875 -10.4325 7.46375 -9.625 7.1875 C-6.71885077 6.15185568 -6.71885077 6.15185568 -5 3 C-3.68 3.33 -2.36 3.66 -1 4 C-0.67 2.68 -0.34 1.36 0 0 Z " fill="#BDBEBD" transform="translate(168,209)"/>
<path d="M0 0 C0.33 0 0.66 0 1 0 C1.19622241 4.21878192 0.80230168 7.17010894 -1 11 C-1.99 11 -2.98 11 -4 11 C-4.99 11.495 -4.99 11.495 -6 12 C-4.68315519 7.39104317 -2.84801255 3.85859765 0 0 Z " fill="#F9F7E7" transform="translate(213,155)"/>
<path d="M0 0 C-0.33 0.99 -0.66 1.98 -1 3 C-4.3 3.33 -7.6 3.66 -11 4 C-11.33 3.01 -11.66 2.02 -12 1 C-7.9472484 0.01751476 -4.16138263 -0.08159574 0 0 Z " fill="#F7F5E3" transform="translate(154,216)"/>
<path d="M0 0 C1.32 0.66 2.64 1.32 4 2 C4.25 8.625 4.25 8.625 2 12 C1.67 10.35 1.34 8.7 1 7 C0.34 8.32 -0.32 9.64 -1 11 C-2.31625194 8.36749612 -1.74813658 7.19820944 -1.0625 4.375 C-0.86785156 3.55773437 -0.67320312 2.74046875 -0.47265625 1.8984375 C-0.23869141 0.95871094 -0.23869141 0.95871094 0 0 Z " fill="#E3E1D0" transform="translate(212,149)"/>
<path d="M0 0 C2.9375 0.8125 2.9375 0.8125 6 2 C6.96070434 4.88211302 7.10581883 6.69850044 7.0625 9.6875 C7.05347656 10.49574219 7.04445312 11.30398437 7.03515625 12.13671875 C7.02355469 12.75160156 7.01195312 13.36648437 7 14 C6.34 14 5.68 14 5 14 C4.96132812 13.11248047 4.96132812 13.11248047 4.921875 12.20703125 C4.54295586 6.9279987 3.89363339 3.89363339 0 0 Z " fill="#F3F0D4" transform="translate(167,118)"/>
<path d="M0 0 C5.68502535 1.64566523 10.76681636 4.29032784 16 7 C16 7.66 16 8.32 16 9 C9.75106054 7.25709852 5.0610453 5.09190897 0 1 C0 0.67 0 0.34 0 0 Z " fill="#CCBE86" transform="translate(152,59)"/>
<path d="M0 0 C2.58347022 1.29173511 2.94936092 2.34086037 4 5 C4.1953125 7.359375 4.1953125 7.359375 4.125 9.75 C4.10695312 10.54921875 4.08890625 11.3484375 4.0703125 12.171875 C4.03550781 13.07679687 4.03550781 13.07679687 4 14 C3.34 14 2.68 14 2 14 C1.66179834 12.4176994 1.32964061 10.83410625 1 9.25 C0.814375 8.36828125 0.62875 7.4865625 0.4375 6.578125 C0 4 0 4 0 0 Z " fill="#F5F3E4" transform="translate(211,103)"/>
<path d="M0 0 C1.18771723 3.42943519 0.80226223 5.37784675 -0.4375 8.75 C-0.86869141 9.94882813 -0.86869141 9.94882813 -1.30859375 11.171875 C-1.53675781 11.77515625 -1.76492187 12.3784375 -2 13 C-1.34 13 -0.68 13 0 13 C-0.33 13.99 -0.66 14.98 -1 16 C-1.99 15.34 -2.98 14.68 -4 14 C-3.46148032 8.72250715 -2.22656164 4.74354436 0 0 Z " fill="#A9942A" transform="translate(56,68)"/>
<path d="M0 0 C0.33 0 0.66 0 1 0 C1.33 1.98 1.66 3.96 2 6 C1.01 6.33 0.02 6.66 -1 7 C-1.33 8.155 -1.66 9.31 -2 10.5 C-2.33 11.655 -2.66 12.81 -3 14 C-3.99 14.33 -4.98 14.66 -6 15 C-4 10 -2 5 0 0 Z " fill="#B19728" transform="translate(197,157)"/>
<path d="M0 0 C1.41750563 0.11509661 2.83401169 0.24253658 4.25 0.375 C5.03890625 0.44460937 5.8278125 0.51421875 6.640625 0.5859375 C9.085877 1.01507113 10.84836903 1.78600638 13 3 C10.54048544 4.22975728 9.21743376 4.01468511 6.5 3.75 C5.7059375 3.68296875 4.911875 3.6159375 4.09375 3.546875 C2 3 2 3 0 0 Z " fill="#D0CDB8" transform="translate(102,216)"/>
<path d="M0 0 C4.83256305 0.41421969 6.82679218 2.46413986 10 6 C9.67 6.66 9.34 7.32 9 8 C7.49460339 7.05016642 5.99579653 6.08988109 4.5 5.125 C3.6646875 4.59132813 2.829375 4.05765625 1.96875 3.5078125 C1.3190625 3.01023437 0.669375 2.51265625 0 2 C0 1.34 0 0.68 0 0 Z " fill="#DED9BA" transform="translate(141,100)"/>
<path d="M0 0 C-1 2 -1 2 -3.875 3.0625 C-4.90625 3.371875 -5.9375 3.68125 -7 4 C-7.99 4.33 -8.98 4.66 -10 5 C-10.33 5.99 -10.66 6.98 -11 8 C-11.33 7.34 -11.66 6.68 -12 6 C-10.75 3.4375 -10.75 3.4375 -9 1 C-5.8035914 -0.06546953 -3.34252724 -0.07427838 0 0 Z " fill="#927F29" transform="translate(112,79)"/>
<path d="M0 0 C-1.3418344 4.02550319 -3.4227573 4.88285636 -7 7 C-7.66 7 -8.32 7 -9 7 C-8.8125 5.1875 -8.8125 5.1875 -8 3 C-5.09303401 0.85802506 -3.64478912 0 0 0 Z " fill="#C1C0AD" transform="translate(165,140)"/>
<path d="M0 0 C0.928125 0.20625 1.85625 0.4125 2.8125 0.625 C-0.3129959 3.26965038 -3.27538267 4.46914715 -7.1875 5.625 C-6.875 3.75 -6.875 3.75 -6.1875 1.625 C-3.1875 -0.375 -3.1875 -0.375 0 0 Z " fill="#BEBFBF" transform="translate(99.1875,62.375)"/>
<path d="M0 0 C1.2077558 3.62326739 0.54311128 4.64146369 -1 8 C-2.32 8 -3.64 8 -5 8 C-5.33 8.66 -5.66 9.32 -6 10 C-6.66 10 -7.32 10 -8 10 C-7.875 8.25 -7.875 8.25 -7 6 C-5.03852126 4.61061923 -3.03833424 3.2739589 -1 2 C-0.67 1.34 -0.34 0.68 0 0 Z " fill="#D5D3C4" transform="translate(213,161)"/>
<path d="M0 0 C2.94721162 2.74395564 5.19168608 5.38337216 7 9 C6.67 9.66 6.34 10.32 6 11 C1.9957657 7.50912907 0.37328935 5.35048061 0 0 Z " fill="#BAB8AB" transform="translate(201,81)"/>
<path d="M0 0 C2.38110152 4.76220304 2.42033174 6.78788648 2 12 C1.01 12.66 0.02 13.32 -1 14 C-0.67 9.38 -0.34 4.76 0 0 Z " fill="#C6C5BE" transform="translate(215,109)"/>
<path d="M0 0 C3.35435922 1.38801071 5.11290303 2.88629 7 6 C7 6.99 7 7.98 7 9 C2.97449681 7.6581656 2.11714364 5.5772427 0 2 C0 1.34 0 0.68 0 0 Z " fill="#C7C3A3" transform="translate(73,48)"/>
<path d="M0 0 C-1.0975223 2.99324263 -1.67682892 3.84610901 -4.625 5.25 C-5.40875 5.4975 -6.1925 5.745 -7 6 C-6.6875 4.125 -6.6875 4.125 -6 2 C-3 0 -3 0 0 0 Z " fill="#C2BEAB" transform="translate(134,161)"/>
<path d="M0 0 C1.44096586 0.42594588 2.87768712 0.86626633 4.3125 1.3125 C5.11300781 1.55613281 5.91351563 1.79976563 6.73828125 2.05078125 C9.09964573 3.04182023 10.33879993 4.08074943 12 6 C8.18683244 6.57775266 6.23331413 5.71685634 3.1875 3.5625 C1.35546875 2.19140625 1.35546875 2.19140625 0 1 C0 0.67 0 0.34 0 0 Z " fill="#D0CCB2" transform="translate(159,113)"/>
<path d="M0 0 C6.64615385 1.47692308 6.64615385 1.47692308 8.4375 4.125 C8.7159375 5.053125 8.7159375 5.053125 9 6 C4.75177626 5.52797514 2.80010291 3.03344482 0 0 Z " fill="#E0DBC3" transform="translate(122,87)"/>
<path d="M0 0 C2.475 0.495 2.475 0.495 5 1 C5 1.66 5 2.32 5 3 C6.2065625 3.433125 6.2065625 3.433125 7.4375 3.875 C10 5 10 5 11 7 C6.89188572 5.55007731 3.53144334 3.54592427 0 1 C0 0.67 0 0.34 0 0 Z " fill="#B6A86C" transform="translate(80,206)"/>
<path d="M0 0 C0.66 1.32 1.32 2.64 2 4 C1.01 5.32 0.02 6.64 -1 8 C-1.625 5.125 -1.625 5.125 -2 2 C-1.34 1.34 -0.68 0.68 0 0 Z M-4 4 C-3.01 4.495 -3.01 4.495 -2 5 C-2.99 5.495 -2.99 5.495 -4 6 C-4 5.34 -4 4.68 -4 4 Z " fill="#DEDDDC" transform="translate(209,167)"/>
<path d="M0 0 C0.66 0.33 1.32 0.66 2 1 C1.67 1.99 1.34 2.98 1 4 C0.34 4 -0.32 4 -1 4 C-1 4.66 -1 5.32 -1 6 C-1.99 5.67 -2.98 5.34 -4 5 C-3.67 4.34 -3.34 3.68 -3 3 C-3.66 2.67 -4.32 2.34 -5 2 C-2.625 0.9375 -2.625 0.9375 0 0 Z " fill="#E8E5CD" transform="translate(157,213)"/>
<path d="M0 0 C0.66 0.33 1.32 0.66 2 1 C2 2.32 2 3.64 2 5 C0.02 5.99 0.02 5.99 -2 7 C-2.33 6.01 -2.66 5.02 -3 4 C-1.5625 1.8125 -1.5625 1.8125 0 0 Z " fill="#D8D8D7" transform="translate(183,199)"/>
<path d="M0 0 C1.99097846 2.98646769 2.94124926 5.59687262 4 9 C3.34 9.66 2.68 10.32 2 11 C0.80712589 7.12315913 0 4.08378077 0 0 Z " fill="#BCBAAC" transform="translate(60,162)"/>
<path d="M0 0 C2.31 0.66 4.62 1.32 7 2 C7.33 3.32 7.66 4.64 8 6 C4.63408134 4.55746343 2.48952921 2.66735273 0 0 Z " fill="#B09B35" transform="translate(171,70)"/>
<path d="M0 0 C2.25 -0.25 2.25 -0.25 5 0 C7.3125 2 7.3125 2 9 4 C4.545 3.01 4.545 3.01 0 2 C0 1.34 0 0.68 0 0 Z " fill="#9B9B93" transform="translate(147,59)"/>
</svg>
